# xmcd
#
# Track frame offsets: 
#        182
#        12212
#        21417
#        35060
#        47540
#        59412
#        71997
#        83802
#        96295
#        109662
#        122715
#        134772
#        146757
#        160010
#        172725
#        184825
#        197885
#        210540
#
# Disc length: 2969 seconds
#
# Revision: 0
# Processed by: cddbd v1.4b42PL1 Copyright (c) Steve Scherf et al.
# Submitted via: ExactAudioCopy v0.90a11
#
DISCID=070b9712
DTITLE=The Delmore Brothers - The Delmore Brothers  Sand Mountain Blue
DTITLE=s
DYEAR=1900
DGENRE=
TTITLE0=Kentucky Mountain
TTITLE1=Midnight Train
TTITLE2=Someday You'll Pay
TTITLE3=Remember I Feel Lonesome Too
TTITLE4=Weary Day
TTITLE5=Prisoner's Farewell
TTITLE6=Brown's Ferry Blues
TTITLE7=You Can't Do Wrong and Get By
TTITLE8=She Left Me Standing On The Mountain
TTITLE9=Mississippi Shore
TTITLE10=Sand Mountain Blues
TTITLE11=I Won't Be Worried Long
TTITLE12=Frozen Girl
TTITLE13=Going Back To The Blue Ridge Mountains
TTITLE14=I'm Lonesome Without You
TTITLE15=Don't Forget Me
TTITLE16='Dis Train
TTITLE17=Last Old Shovel
EXTD=
EXTT0=
EXTT1=
EXTT2=
EXTT3=
EXTT4=
EXTT5=
EXTT6=
EXTT7=
EXTT8=
EXTT9=
EXTT10=
EXTT11=
EXTT12=
EXTT13=
EXTT14=
EXTT15=
EXTT16=
EXTT17=
PLAYORDER=
